Coordinates
version=1
nRows=17
nColumns=63
inDegrees=yes

Units are S.I. units (second, meters, Newtons, ...)
If the header above contains a line with 'inDegrees', this indicates whether rotational values are in degrees (yes) or radians (no).

endheader
time	pelvis_tilt	pelvis_list	pelvis_rotation	pelvis_tx	pelvis_ty	pelvis_tz	hip_flexion_r	hip_adduction_r	hip_rotation_r	knee_angle_r	knee_angle_r_beta	ankle_angle_r	subtalar_angle_r	mtp_angle_r	hip_flexion_l	hip_adduction_l	hip_rotation_l	knee_angle_l	knee_angle_l_beta	ankle_angle_l	subtalar_angle_l	mtp_angle_l	L5_S1_Flex_Ext	L5_S1_Lat_Bending	L5_S1_axial_rotation	L4_L5_Flex_Ext	L4_L5_Lat_Bending	L4_L5_axial_rotation	L3_L4_Flex_Ext	L3_L4_Lat_Bending	L3_L4_axial_rotation	L2_L3_Flex_Ext	L2_L3_Lat_Bending	L2_L3_axial_rotation	L1_L2_Flex_Ext	L1_L2_Lat_Bending	L1_L2_axial_rotation	L1_T12_Flex_Ext	L1_T12_Lat_Bending	L1_T12_axial_rotation	Abs_r3	Abs_r2	Abs_r1	Abs_t1	Abs_t2	neck_flexion	neck_bending	neck_rotation	arm_flex_r	arm_add_r	arm_rot_r	elbow_flex_r	pro_sup_r	wrist_flex_r	wrist_dev_r	arm_flex_l	arm_add_l	arm_rot_l	elbow_flex_l	pro_sup_l	wrist_flex_l	wrist_dev_l
7.018868	-0.534570	-1.904118	80.239387	0.014049	0.965404	0.510019	1.828388	1.009715	10.345523	12.521342	0.218539	26.521324	-6.269878	0.000000	-0.343914	-1.786286	-15.131260	10.708617	0.186901	33.979914	6.087222	0.000000	-0.400326	0.244835	2.209109	-0.743446	0.325630	2.347178	-0.657696	0.595291	2.347178	-0.457533	0.595291	1.932970	-0.371743	0.499267	1.794901	-0.228746	0.379249	1.656832	-2.859489	2.769619	12.286401	0.000000	0.000000	-14.477447	0.800756	7.270948	-36.746648	-41.833485	22.374387	72.569664	89.578252	-13.904179	10.916157	-40.989490	-44.277908	23.475552	50.386043	79.572207	-20.170318	-3.706620
7.037736	-0.727825	-1.958300	80.132340	0.014339	0.964656	0.510825	2.426086	0.964767	11.058035	13.339213	0.232813	26.819870	-7.200185	0.000000	0.024913	-1.723331	-15.820197	11.268190	0.196667	34.278667	6.420553	0.000000	-0.433011	0.196041	2.362714	-0.804145	0.260735	2.510383	-0.711394	0.476655	2.510383	-0.494888	0.476655	2.067374	-0.402094	0.399767	1.919705	-0.247423	0.303668	1.772035	-3.092956	2.217657	13.140704	0.000000	0.000000	-16.067319	1.707869	5.952645	-40.923792	-38.189783	20.576159	74.948189	87.164156	-13.316672	9.959842	-44.698625	-40.468128	21.378477	53.963350	83.277366	-20.855627	-5.009952
7.056604	-0.960621	-1.992657	80.044944	0.014669	0.963983	0.511708	3.029259	0.895168	11.767996	14.183671	0.247552	27.132902	-8.146807	0.000000	0.348843	-1.620491	-16.538816	11.719278	0.204540	34.543518	6.865789	0.000000	-0.461453	0.141879	2.534519	-0.856965	0.188699	2.692926	-0.758122	0.344964	2.692926	-0.527395	0.344964	2.217704	-0.428506	0.289319	2.059297	-0.263675	0.219770	1.900889	-3.296116	1.604962	14.096234	0.000000	0.000000	-17.571635	2.573573	4.586266	-44.934107	-34.611080	19.049767	77.296890	84.101339	-12.349006	8.789060	-47.964765	-36.821175	19.700890	58.035124	86.473545	-20.770149	-6.826215
7.075472	-1.204818	-1.991574	79.984633	0.014985	0.963404	0.512618	3.600295	0.820664	12.439420	15.036793	0.262442	27.427641	-9.086188	0.000000	0.593679	-1.497952	-17.342710	12.044172	0.210210	34.793998	7.499211	0.000000	-0.486672	0.089899	2.708073	-0.903798	0.119566	2.877328	-0.799553	0.218581	2.877328	-0.556217	0.218581	2.369564	-0.451923	0.183323	2.200310	-0.278084	0.139254	2.031055	-3.476248	1.016958	15.061491	0.000000	0.000000	-18.959125	3.239590	3.386120	-48.855156	-31.267745	17.526071	79.578713	81.383049	-10.826944	7.504398	-50.695229	-33.467659	18.772216	62.223970	88.868279	-19.964441	-8.692177
7.094340	-1.497065	-1.966039	79.916391	0.015345	0.962869	0.513520	4.154837	0.697389	13.047695	15.903187	0.277563	27.754692	-9.909079	0.000000	0.770342	-1.316935	-18.235013	12.253006	0.213855	35.031145	8.276075	0.000000	-0.506273	0.036104	2.880578	-0.940199	0.048019	3.060615	-0.831755	0.087784	3.060615	-0.578619	0.087784	2.520506	-0.470125	0.073624	2.340470	-0.289284	0.055926	2.160434	-3.616256	0.408421	16.020913	0.000000	0.000000	-20.199424	3.705760	2.374296	-52.600475	-28.255508	16.060746	81.791963	79.997154	-8.998467	6.489898	-52.838132	-30.532464	18.829979	66.139100	90.316976	-18.736607	-10.721190
7.113208	-1.781500	-1.911709	79.858623	0.015668	0.962414	0.514461	4.658168	0.573541	13.586919	16.746530	0.292282	28.043108	-10.655950	0.000000	0.867686	-1.131461	-19.245750	12.360511	0.215732	35.251727	9.261797	0.000000	-0.523959	-0.010583	3.037745	-0.973045	-0.014076	3.227604	-0.860813	-0.025732	3.227604	-0.598833	-0.025732	2.658027	-0.486548	-0.021582	2.468168	-0.299390	-0.016394	2.278309	-3.742588	-0.119721	16.895028	0.000000	0.000000	-21.280029	3.948795	1.673400	-55.866832	-25.794793	15.111721	83.777524	79.091016	-6.807843	5.435302	-54.395009	-28.151536	19.924156	69.602934	90.813175	-17.112486	-12.491737
7.132075	-2.049467	-1.845398	79.821206	0.015919	0.962051	0.515427	5.111710	0.454241	14.045035	17.550902	0.306321	28.253636	-11.332057	0.000000	0.894975	-0.942161	-20.247624	12.360710	0.215735	35.407861	10.323405	0.000000	-0.538753	-0.049686	3.174104	-1.000519	-0.066083	3.372486	-0.885118	-0.120808	3.372486	-0.615741	-0.120808	2.777341	-0.500286	-0.101321	2.578960	-0.307844	-0.076964	2.380578	-3.848262	-0.562063	17.653415	0.000000	0.000000	-22.209294	4.015062	1.209969	-58.524147	-24.025162	14.799485	85.395892	78.469304	-4.272510	4.167657	-55.294223	-26.415174	22.075544	72.495224	90.451692	-15.242096	-13.951629
7.150943	-2.308970	-1.792746	79.813496	0.016151	0.961780	0.516391	5.529428	0.340064	14.476201	18.299541	0.319387	28.341040	-12.027110	0.000000	0.887447	-0.747478	-21.170479	12.277716	0.214287	35.474270	11.410173	0.000000	-0.547425	-0.085656	3.263646	-1.016623	-0.113923	3.467624	-0.899365	-0.208265	3.467624	-0.625652	-0.208265	2.855690	-0.508339	-0.174670	2.651712	-0.312799	-0.132682	2.447734	-3.910203	-0.968961	18.151419	0.000000	0.000000	-22.997733	3.998941	1.000632	-60.277144	-23.133955	15.454229	86.550377	78.055941	-1.594430	2.647539	-56.010196	-25.288279	24.357779	74.792738	89.691324	-13.193627	-15.063828
7.169811	-2.543720	-1.758791	79.814005	0.016341	0.961614	0.517354	5.910923	0.241259	14.868567	18.984786	0.331347	28.289176	-12.700113	0.000000	0.847819	-0.555626	-21.956016	12.111298	0.211382	35.429976	12.432271	0.000000	-0.550584	-0.117499	3.309785	-1.022489	-0.156274	3.516646	-0.904554	-0.285688	3.516646	-0.629262	-0.285688	2.896062	-0.511272	-0.239605	2.689200	-0.314604	-0.182006	2.482339	-3.932765	-1.329175	18.408031	0.000000	0.000000	-23.630893	3.925328	0.963302	-61.329401	-23.266281	16.710258	87.287935	77.940041	1.101613	1.071764	-56.522378	-24.666528	26.379575	76.389184	88.896966	-11.267072	-15.993540
7.188679	-2.758175	-1.738808	79.793138	0.016541	0.961526	0.518335	6.255688	0.155671	15.263150	19.604102	0.342156	28.117398	-13.354851	0.000000	0.782072	-0.364243	-22.617946	11.883395	0.207404	35.285878	13.361537	0.000000	-0.548857	-0.148516	3.318774	-1.019281	-0.197526	3.526197	-0.901716	-0.361101	3.526197	-0.627288	-0.361101	2.903927	-0.509668	-0.302854	2.696504	-0.313617	-0.230051	2.489080	-3.920427	-1.680041	18.458025	0.000000	0.000000	-24.093367	3.860559	1.010302	-61.759808	-24.402965	18.344136	87.624887	78.174815	3.725924	-0.411869	-56.889392	-24.445119	27.612133	77.186817	88.358007	-9.729935	-16.817388
7.207547	-2.947256	-1.709873	79.727862	0.016784	0.961501	0.519411	6.551063	0.083935	15.658972	20.156913	0.351804	27.869747	-13.952189	0.000000	0.680559	-0.178007	-23.180540	11.614718	0.202715	35.061029	14.171072	0.000000	-0.546113	-0.180271	3.297234	-1.014186	-0.239760	3.503311	-0.897208	-0.438310	3.503311	-0.624152	-0.438310	2.885080	-0.507120	-0.367608	2.679003	-0.312049	-0.279239	2.472926	-3.900828	-2.039259	18.338228	0.000000	0.000000	-24.374515	3.849985	1.090323	-61.538237	-26.407773	20.213460	87.530940	78.724400	6.197014	-1.858995	-57.027864	-24.587429	28.008711	77.047155	87.987666	-8.711752	-17.486521
7.226415	-3.126285	-1.662133	79.612366	0.017108	0.961494	0.520689	6.810216	0.018090	16.077523	20.657064	0.360534	27.592376	-14.509158	0.000000	0.561842	0.009527	-23.661673	11.342958	0.197972	34.768932	14.849790	0.000000	-0.544439	-0.215091	3.250380	-1.011077	-0.286071	3.453528	-0.894459	-0.522973	3.453528	-0.622239	-0.522973	2.844082	-0.505566	-0.438614	2.640934	-0.311092	-0.333176	2.437785	-3.888873	-2.433154	18.077637	0.000000	0.000000	-24.455041	3.903805	1.211252	-60.738998	-29.056325	21.959533	87.007661	79.648748	8.439897	-3.310473	-56.831173	-25.151115	27.779514	75.854081	87.737440	-7.971367	-17.644178
7.245283	-3.269142	-1.577912	79.432215	0.017474	0.961510	0.522202	7.017961	-0.023847	16.515307	21.094514	0.368169	27.311318	-14.994447	0.000000	0.409297	0.175719	-24.085350	11.075251	0.193300	34.442560	15.381910	0.000000	-0.547713	-0.247090	3.177221	-1.017158	-0.328630	3.375797	-0.899838	-0.600775	3.375797	-0.625981	-0.600775	2.780069	-0.508606	-0.503866	2.581492	-0.312963	-0.382743	2.382916	-3.912260	-2.795134	17.670751	0.000000	0.000000	-24.337502	3.937930	1.480771	-59.351388	-32.230482	23.416649	86.099628	80.886958	10.395895	-4.717606	-56.196127	-26.180299	27.380651	73.512114	87.514287	-7.382043	-16.971253
7.264151	-3.371361	-1.477342	79.194137	0.017864	0.961528	0.523915	7.193188	-0.035177	16.955105	21.457245	0.374500	27.064627	-15.384915	0.000000	0.248324	0.309108	-24.462390	10.821112	0.188864	34.104265	15.750116	0.000000	-0.555128	-0.272691	3.077463	-1.030928	-0.362679	3.269805	-0.912020	-0.663021	3.269805	-0.634456	-0.663021	2.692780	-0.515492	-0.556071	2.500439	-0.317200	-0.422398	2.308097	-3.965224	-3.084735	17.115926	0.000000	0.000000	-24.021539	3.872781	2.001574	-57.477620	-35.809341	24.406451	84.856531	82.431868	12.071699	-5.881890	-55.207361	-27.702453	26.935077	70.117585	87.280643	-6.930672	-15.532583
7.283019	-3.438199	-1.407306	78.931098	0.018201	0.961521	0.525748	7.378769	-0.023065	17.316740	21.731953	0.379294	26.881541	-15.606323	0.000000	0.127101	0.412703	-24.717966	10.568554	0.184456	33.762903	15.886186	0.000000	-0.563127	-0.288373	2.956466	-1.045783	-0.383536	3.141245	-0.925161	-0.701151	3.141245	-0.643598	-0.701151	2.586907	-0.522920	-0.588051	2.402128	-0.321771	-0.446690	2.217349	-4.022359	-3.262136	16.442974	0.000000	0.000000	-23.535495	3.656466	2.822825	-55.261980	-39.694418	24.867642	83.309858	84.129024	13.340718	-6.666693	-54.031340	-29.771410	26.394540	66.048039	87.030219	-6.755733	-13.600967
7.301887	-3.502967	-1.411524	78.642446	0.018551	0.961462	0.527681	7.623742	-0.006458	17.638023	21.919426	0.382566	26.753529	-15.712045	0.000000	0.097967	0.495615	-24.954540	10.326181	0.180226	33.445680	15.913151	0.000000	-0.568704	-0.298272	2.824919	-1.056141	-0.396701	3.001477	-0.934324	-0.725218	3.001477	-0.649972	-0.725218	2.471804	-0.528099	-0.608236	2.295247	-0.324958	-0.462023	2.118689	-4.062197	-3.374110	15.711354	0.000000	0.000000	-22.909812	3.296245	3.882012	-52.579140	-43.868746	25.149216	81.419714	85.362927	14.331999	-7.122718	-52.759375	-32.412581	25.702252	61.826720	86.814121	-6.943816	-11.731517
7.320755	-3.568997	-1.516010	78.351601	0.018889	0.961343	0.529730	7.954245	0.011439	17.875888	22.023111	0.384376	26.689436	-15.655943	0.000000	0.200816	0.556814	-25.099343	10.103031	0.176331	33.175280	15.783013	0.000000	-0.569945	-0.303146	2.703196	-1.058445	-0.403184	2.872145	-0.936363	-0.737068	2.872145	-0.651390	-0.737068	2.365296	-0.529251	-0.618174	2.196347	-0.325667	-0.469572	2.027397	-4.071062	-3.429243	15.034364	0.000000	0.000000	-22.171161	2.830721	4.980000	-49.070475	-48.259345	25.948777	79.201862	86.087232	14.939740	-7.306173	-51.106669	-35.607516	25.187673	57.945005	86.695563	-7.489688	-10.356476
